<svg width="64" height="42" viewBox="0 0 64 42" fill="none" xmlns="http://www.w3.org/2000/svg">
<path fill-rule="evenodd" clip-rule="evenodd" d="M0 3C0 1.34315 1.34315 0 3 0H61C62.6569 0 64 1.34315 64 3V39C64 40.6569 62.6569 42 61 42H3C1.34315 42 0 40.6569 0 39V3Z" fill="#F4F6F7"/>
<path fill-rule="evenodd" clip-rule="evenodd" d="M0 3C0 1.34315 1.34315 0 3 0H61C62.6569 0 64 1.34315 64 3V39C64 40.6569 62.6569 42 61 42H3C1.34315 42 0 40.6569 0 39V3Z" fill="#E5E5E5" fill-opacity="0.01"/>
<path fill-rule="evenodd" clip-rule="evenodd" d="M34.6268 30.9604C40.033 30.9865 44.9674 26.5112 44.9674 21.0669C44.9674 15.1133 40.033 10.998 34.6268 11H29.9741C24.5031 10.998 20 15.1145 20 21.0669C20 26.5124 24.5031 30.9865 29.9741 30.9604H34.6268Z" fill="url(#paint0_linear)"/>
<path fill-rule="evenodd" clip-rule="evenodd" d="M29.9933 11.8317C24.9941 11.8332 20.9431 15.9224 20.9419 20.9691C20.9431 26.015 24.9941 30.1037 29.9933 30.1053C34.9937 30.1037 39.0456 26.015 39.0463 20.9691C39.0455 15.9224 34.9937 11.8332 29.9933 11.8317ZM24.2559 20.9691C24.2606 18.503 25.7869 16.4 27.9392 15.5643V26.3726C25.7869 25.5374 24.2606 23.4356 24.2559 20.9691ZM32.0467 26.375V15.564C34.1998 16.3976 35.7284 18.5018 35.7324 20.9691C35.7284 23.4372 34.1998 25.5398 32.0467 26.375Z" fill="#F4F6F7"/>
<defs>
<linearGradient id="paint0_linear" x1="50.1487" y1="27.1405" x2="43.7455" y2="6.2151" gradientUnits="userSpaceOnUse">
<stop stop-color="#009BE0"/>
<stop offset="1" stop-color="#006BA8"/>
</linearGradient>
</defs>
</svg>
