<svg width="64" height="42" viewBox="0 0 64 42" fill="none" xmlns="http://www.w3.org/2000/svg">
<path fill-rule="evenodd" clip-rule="evenodd" d="M0 3C0 1.34315 1.34315 0 3 0H61C62.6569 0 64 1.34315 64 3V39C64 40.6569 62.6569 42 61 42H3C1.34315 42 0 40.6569 0 39V3Z" fill="url(#paint0_linear)"/>
<path fill-rule="evenodd" clip-rule="evenodd" d="M0 3C0 1.34315 1.34315 0 3 0H61C62.6569 0 64 1.34315 64 3V39C64 40.6569 62.6569 42 61 42H3C1.34315 42 0 40.6569 0 39V3Z" fill="#E5E5E5" fill-opacity="0.01"/>
<path fill-rule="evenodd" clip-rule="evenodd" d="M12.7791 22.7824C12.3288 23.1918 11.7436 23.3704 10.8173 23.3704H10.4326V18.4798H10.8173C11.7436 18.4798 12.3058 18.6467 12.7791 19.0781C13.2749 19.5221 13.573 20.2107 13.573 20.9189C13.573 21.6289 13.2749 22.3384 12.7791 22.7824ZM11.1044 17.2269H9.00003V24.6221H11.0933C12.2064 24.6221 13.0103 24.3581 13.7156 23.7684C14.5541 23.0704 15.0499 22.0181 15.0499 20.9298C15.0499 18.7472 13.4294 17.2269 11.1044 17.2269Z" fill="#212D34"/>
<path fill-rule="evenodd" clip-rule="evenodd" d="M15.7095 24.6222H17.1431V17.2268H15.7095V24.6222Z" fill="#212D34"/>
<path fill-rule="evenodd" clip-rule="evenodd" d="M20.6486 20.0647C19.7882 19.7445 19.5358 19.5333 19.5358 19.1336C19.5358 18.6679 19.9859 18.3139 20.6038 18.3139C21.0331 18.3139 21.3863 18.4916 21.7597 18.9127L22.5099 17.9245C21.8935 17.3819 21.156 17.1047 20.3502 17.1047C19.0497 17.1047 18.0579 18.0133 18.0579 19.2236C18.0579 20.2425 18.5196 20.7642 19.8661 21.2516C20.4274 21.451 20.7131 21.5836 20.857 21.6727C21.1435 21.861 21.2869 22.1276 21.2869 22.4382C21.2869 23.0373 20.8136 23.4813 20.1739 23.4813C19.4901 23.4813 18.9392 23.137 18.6093 22.4947L17.683 23.3922C18.3435 24.3679 19.1369 24.8002 20.2278 24.8002C21.7174 24.8002 22.7626 23.8033 22.7626 22.3719C22.7626 21.1967 22.2793 20.665 20.6486 20.0647Z" fill="#212D34"/>
<path fill-rule="evenodd" clip-rule="evenodd" d="M23.2149 20.9297C23.2149 23.1034 24.9112 24.7888 27.0942 24.7888C27.7112 24.7888 28.2399 24.6668 28.8916 24.358V22.66C28.3186 23.2371 27.8109 23.47 27.1609 23.47C25.717 23.47 24.6922 22.4165 24.6922 20.9188C24.6922 19.4991 25.7494 18.3791 27.0942 18.3791C27.7779 18.3791 28.2956 18.6245 28.8916 19.2111V17.514C28.2624 17.1928 27.745 17.0597 27.128 17.0597C24.956 17.0597 23.2149 18.7794 23.2149 20.9297Z" fill="#212D34"/>
<path fill-rule="evenodd" clip-rule="evenodd" d="M40.2586 22.1944L38.2987 17.2269H36.7325L39.8514 24.8121H40.6229L43.798 17.2269H42.2439L40.2586 22.1944Z" fill="#212D34"/>
<path fill-rule="evenodd" clip-rule="evenodd" d="M44.4463 24.6222H48.5119V23.3702H45.8788V21.3739H48.415V20.1214H45.8788V18.4799H48.5119V17.2268H44.4463V24.6222Z" fill="#212D34"/>
<path fill-rule="evenodd" clip-rule="evenodd" d="M51.3121 20.6316H50.8933V18.3918H51.3348C52.2279 18.3918 52.7131 18.7681 52.7131 19.4878C52.7131 20.2313 52.2279 20.6316 51.3121 20.6316ZM54.1882 19.4101C54.1882 18.0255 53.2404 17.2267 51.5873 17.2267H49.4613V24.6221H50.8933V21.6513H51.0804L53.0646 24.6221H54.8277L52.5138 21.5067C53.5936 21.2855 54.1882 20.5424 54.1882 19.4101Z" fill="#212D34"/>
<g filter="url(#filter0_i)">
<path fill-rule="evenodd" clip-rule="evenodd" d="M37.1795 20.9501C37.1795 23.123 35.4289 24.8844 33.2695 24.8844C31.11 24.8844 29.3597 23.123 29.3597 20.9501C29.3597 18.7773 31.11 17.0161 33.2695 17.0161C35.4289 17.0161 37.1795 18.7773 37.1795 20.9501Z" fill="url(#paint1_linear)"/>
</g>
<defs>
<filter id="filter0_i" x="29.3597" y="17.0161" width="7.81972" height="7.86829" filterUnits="userSpaceOnUse" color-interpolation-filters="sRGB">
<feFlood flood-opacity="0" result="BackgroundImageFix"/>
<feBlend mode="normal" in="SourceGraphic" in2="BackgroundImageFix" result="shape"/>
<feColorMatrix in="SourceAlpha" type="matrix" values="0 0 0 0 0 0 0 0 0 0 0 0 0 0 0 0 0 0 127 0" result="hardAlpha"/>
<feOffset dx="1" dy="1"/>
<feComposite in2="hardAlpha" operator="arithmetic" k2="-1" k3="1"/>
<feColorMatrix type="matrix" values="0 0 0 0 0.314068 0 0 0 0 0.00146228 0 0 0 0 0.00146228 0 0 0 0.5 0"/>
<feBlend mode="normal" in2="shape" result="effect1_innerShadow"/>
</filter>
<linearGradient id="paint0_linear" x1="-32" y1="21" x2="6.53106" y2="79.714" gradientUnits="userSpaceOnUse">
<stop stop-color="#EDF1F3"/>
<stop offset="1" stop-color="#D3DADF"/>
</linearGradient>
<linearGradient id="paint1_linear" x1="38.0591" y1="21.7022" x2="33.4194" y2="16.2149" gradientUnits="userSpaceOnUse">
<stop stop-color="#FFA700"/>
<stop offset="1" stop-color="#E75A10"/>
</linearGradient>
</defs>
</svg>
