<?xml version="1.0" encoding="utf-8"?>
<!-- Generator: Adobe Illustrator 24.2.0, SVG Export Plug-In . SVG Version: 6.00 Build 0)  -->
<svg version="1.1" id="Layer_1" xmlns="http://www.w3.org/2000/svg" xmlns:xlink="http://www.w3.org/1999/xlink" x="0px" y="0px"
	 viewBox="0 0 300 300" style="enable-background:new 0 0 300 300;" xml:space="preserve">
<style type="text/css">
	.st0{fill:#95C0E7;}
	.st1{fill:#2B3549;}
	.st2{fill:#FFFFFF;}
	.st3{fill:#2B3447;}
	.st4{fill:#F9AD96;}
</style>
<g>
	<g>
		<g>
			<path class="st0" d="M148.48,60.86c0.08,0,0.16,0,0.24,0.01c4.74,0.22,18.5,1.51,29.04,12.39c2.28-0.68,4-1.34,5.06-1.86
				c0.04-0.05,0.73-0.36,1.08-0.51c0.8-1.4,4.69-7.43,12.27-7.43c0.5,0,1.01,0.03,1.53,0.08c9.64,1,56.2,19.95,56.2,42.57
				c0,22.61-24.28,44.23-29.93,44.56c0,0,7.65,11.64,5.65,15.3c-1.69,3.1-6,3.33-7.28,3.33c-0.23,0-0.37-0.01-0.37-0.01
				s1.66,19.29-10.31,24.28c0,0,26.61,7.32,26.61,25.28c0,17.96-24.94,20.29-30.93,20.29c-0.63,0-1.4,0.01-2.3,0.01
				c-7.65,0-24.66-1.07-44.59-21.3c0,0-0.59,7.32-10.44,7.32s-10.44-7.32-10.44-7.32c-19.94,20.24-36.94,21.3-44.59,21.3
				c-0.9,0-1.67-0.01-2.3-0.01c-5.99,0-30.93-2.33-30.93-20.29c0-17.96,26.61-25.28,26.61-25.28
				c-11.97-4.99-10.31-24.28-10.31-24.28s-0.13,0.01-0.37,0.01c-1.29,0-5.59-0.24-7.28-3.33c-2-3.66,5.65-15.3,5.65-15.3
				c-5.65-0.33-29.93-21.95-29.93-44.56c0-22.61,46.56-41.57,56.2-42.57c0.53-0.05,1.04-0.08,1.53-0.08
				c8.57,0,12.44,7.73,12.44,7.73l0.07,0.26c1.04,0.42,3.67,1.4,7.66,2.43c0.1-0.05,0.19-0.1,0.3-0.15
				c2.38-0.99,5.48-1.81,8.96-1.81c0.41,0,0.82,0.01,1.23,0.03c0,0-1.55-3.99,0.22-4.43c0.89-0.22,3.27-0.28,5.43-0.28
				s4.1,0.06,4.1,0.06S143.86,60.85,148.48,60.86 M148.49,50.5C148.49,50.5,148.49,50.5,148.49,50.5
				C148.49,50.5,148.48,50.5,148.49,50.5c-3.98,0-7.63,1.56-10.27,4.39c-0.61,0.66-1.14,1.35-1.6,2.05
				c-2.18,0.09-3.37,0.27-4.38,0.53c-2.89,0.72-5.37,2.55-6.92,5.06c-0.57,0.14-1.14,0.3-1.71,0.47c-0.14-0.04-0.28-0.09-0.41-0.13
				c-3.61-4.63-10.13-9.77-19.34-9.77c-0.86,0-1.73,0.05-2.6,0.14c-6.89,0.71-22.23,6.37-35.97,14.59
				c-19.31,11.56-29.52,24.8-29.52,38.28c0,16.23,9.52,30.28,15.19,37.2c1.32,1.61,5.78,6.87,11.21,11.24
				c-2.21,5-3.8,10.98-0.86,16.38c1.5,2.74,3.78,4.93,6.61,6.43c0.14,1.33,0.35,2.76,0.64,4.22c0.62,3.14,1.5,5.85,2.55,8.2
				c-0.49,0.28-0.97,0.57-1.46,0.87c-15.08,9.24-18.25,20.44-18.25,28.21c0,11.94,6.99,21.34,19.69,26.48
				c10,4.05,20.44,4.17,21.6,4.17c0.26,0,0.54,0,0.85,0.01c0.44,0,0.93,0.01,1.45,0.01c15.6,0,29.96-5.49,43.64-16.74
				c3.23,1.8,7.11,2.75,11.39,2.75c4.29,0,8.16-0.95,11.39-2.75c13.67,11.25,28.03,16.74,43.64,16.74c0.53,0,1.01,0,1.45-0.01
				c0.31,0,0.59-0.01,0.85-0.01c1.16,0,11.59-0.12,21.6-4.17c12.7-5.14,19.69-14.54,19.69-26.48c0-7.77-3.17-18.97-18.25-28.21
				c-0.49-0.3-0.98-0.59-1.46-0.87c1.05-2.35,1.93-5.06,2.55-8.2c0.29-1.46,0.5-2.88,0.64-4.22c2.83-1.5,5.11-3.69,6.61-6.43
				c2.95-5.4,1.35-11.38-0.86-16.38c5.43-4.37,9.89-9.63,11.21-11.24c5.67-6.93,15.19-20.97,15.19-37.2
				c0-13.48-10.21-26.71-29.52-38.28C221,59.6,205.66,53.94,198.77,53.23c-0.87-0.09-1.74-0.14-2.6-0.14
				c-7.37,0-13.26,3.32-17.3,7.44c-10.89-7.92-22.84-9.72-29.67-10.03C148.95,50.5,148.72,50.5,148.49,50.5L148.49,50.5L148.49,50.5
				z"/>
		</g>
	</g>
	<path class="st1" d="M211.63,193.57c11.97-4.99,10.31-24.28,10.31-24.28s5.65,0.33,7.65-3.33c2-3.66-5.65-15.3-5.65-15.3
		c5.65-0.33,29.93-21.95,29.93-44.56c0-22.61-46.56-41.57-56.2-42.57c-9.64-1-13.97,7.65-13.97,7.65l-33.72,116.73L116.27,71.18
		c0,0-4.32-8.65-13.97-7.65c-9.64,1-56.2,19.95-56.2,42.57c0,22.61,24.28,44.23,29.93,44.56c0,0-7.65,11.64-5.65,15.3
		c2,3.66,7.65,3.33,7.65,3.33s-1.66,19.29,10.31,24.28c0,0-26.61,7.32-26.61,25.28s24.94,20.29,30.93,20.29
		c5.99,0,24.61,1.33,46.89-21.28c0,0,0.59,7.32,10.44,7.32c9.85,0,10.44-7.32,10.44-7.32c22.28,22.61,40.91,21.28,46.89,21.28
		c5.99,0,30.93-2.33,30.93-20.29S211.63,193.57,211.63,193.57z"/>
	<path class="st2" d="M239.17,106.8c-1.33-17.29-30.93-33.92-38.58-36.92c-6.13-2.4-13.74-0.1-16.53,0.91c0,0-1.22,0.54-1.28,0.6
		c-3.81,1.86-16.03,5.58-33.41,5.58c-3.15,0-6.1-0.15-8.87-0.38c-1.47-0.18-2.94-0.32-4.41-0.45c-11-1.38-18.14-4.05-19.87-4.75
		c-0.1-0.06-0.21-0.12-0.31-0.18h-0.13c0,0-9.98-4.32-17.63-1.33c-7.65,2.99-37.25,19.62-38.58,36.92
		c-1.33,17.29,15.63,35.58,18.96,35.25c3.33-0.33,11.14-4.66,14.97-14.97c3.82-10.31,6.81-18.52,8.65-18.79
		c2.29-0.33-3.82,21.28-3.99,22.95c-0.17,1.66,10.64,0.5,9.98,1.5c-0.67,1-10.31,3.99-10.31,5.82c0,1.83,2.49,3.33,1.66,3.5
		s-19.95,13.3-19.79,17.62c0.17,4.32,5.65,2,5.82,4.16c0.17,2.16,8.81,33.59,27.1,33.59s26.11-8.81,36.75-8.65
		c10.64-0.17,18.46,8.65,36.75,8.65s26.94-31.43,27.1-33.59c0.17-2.16,5.65,0.17,5.82-4.16c0.17-4.32-18.96-17.46-19.79-17.62
		s1.66-1.67,1.66-3.5c0-1.83-9.64-4.82-10.31-5.82c-0.66-1,10.14,0.17,9.98-1.5c-0.17-1.66-6.28-23.28-3.99-22.95
		c1.84,0.27,4.82,8.48,8.65,18.79c3.82,10.31,11.64,14.63,14.97,14.97C223.54,142.38,240.5,124.09,239.17,106.8z"/>
	<path class="st2" d="M181.17,223.42c0,0,3.1-22.95,25.05-22.95s25.72,21.62,25.72,22.95c0,1.33-3.55,5.76-10.2,7.32
		c0,0,1.77-12.19-4.21-14.19c0,0,4.66,16.41-8.65,16.41s-11.75-16.24-11.75-16.24s-5.32,6.26-2.88,14.47
		C194.25,231.18,188.93,233.4,181.17,223.42z"/>
	<path class="st2" d="M118.83,223.42c0,0-3.1-22.95-25.05-22.95s-25.72,21.62-25.72,22.95c0,1.33,3.55,5.76,10.2,7.32
		c0,0-1.77-12.19,4.21-14.19c0,0-4.66,16.41,8.65,16.41s11.75-16.24,11.75-16.24s5.32,6.26,2.88,14.47
		C105.75,231.18,111.07,233.4,118.83,223.42z"/>
	<g>
		<path class="st3" d="M170.87,121.08c-1.29,0-2.5,0.28-3.6,0.75c0.92,0.64,1.52,1.64,1.52,2.77c0,1.94-1.75,3.52-3.91,3.52
			c-0.85,0-1.64-0.25-2.28-0.67c-0.07,0.39-0.13,0.79-0.13,1.19c0,4.18,3.76,7.57,8.4,7.57s8.4-3.39,8.4-7.57
			C179.26,124.47,175.5,121.08,170.87,121.08z"/>
		<path class="st3" d="M130.59,121.08c1.29,0,2.5,0.28,3.6,0.75c-0.92,0.64-1.52,1.64-1.52,2.77c0,1.94,1.75,3.52,3.91,3.52
			c0.85,0,1.64-0.25,2.28-0.67c0.07,0.39,0.13,0.79,0.13,1.19c0,4.18-3.76,7.57-8.4,7.57s-8.4-3.39-8.4-7.57
			C122.19,124.47,125.95,121.08,130.59,121.08z"/>
		<g>
			<path class="st3" d="M150.9,143.92c0,0-22.96,0.22-22.96,10.64c0,10.42,15.33,20.84,22.96,20.84s22.96-10.42,22.96-20.84
				C173.87,144.14,150.9,143.92,150.9,143.92z"/>
			<g>
				<path class="st2" d="M144.7,146.57l12.42-0.27c0.45-0.01,0.82,0.34,0.83,0.79c0.01,0.45-0.34,0.82-0.79,0.83
					c-0.01,0-0.02,0-0.04,0l-12.42-0.27c-0.3-0.01-0.53-0.25-0.53-0.55C144.17,146.81,144.41,146.58,144.7,146.57z"/>
			</g>
		</g>
	</g>
	<g>
		<path class="st4" d="M149.94,193.25c-1.11-0.27-2.22-0.5-3.33-0.77c-2.82,2.31-6.17,3.69-9.68,3.66
			c-0.15,1.07-0.23,2.17-0.23,3.29c0,9.73,5.81,17.63,12.97,17.63c7.16,0,12.97-7.89,12.97-17.63c0-1.3-0.11-2.56-0.31-3.78
			C158.11,195.26,154.05,194.26,149.94,193.25z"/>
		<g>
			<polygon class="st1" points="134.98,198.57 146.34,194.14 149.67,203.79 149.67,189.82 134.04,195.55 			"/>
			<polygon class="st1" points="149.67,189.82 149.67,203.79 152.99,194.14 164.35,198.57 165.3,195.55 			"/>
		</g>
	</g>
	<ellipse class="st2" cx="157.2" cy="76.8" rx="21.42" ry="8.96"/>
	<path class="st3" d="M144.25,67.29c0,0-0.44-6.65,4.43-6.43c4.88,0.22,19.29,1.55,29.93,13.3c0,0-15.96-5.54-23.5-4.66
		c0,0,0.89,7.32-2.22,7.09c-3.1-0.22-8.87-4.88-10.42-3.77c-1.55,1.11-4.21,3.34-6.21,3.77s-14.85,0-14.85,0s0.22-1.78,2.88-2.89
		c2.66-1.11,6.21-2,10.2-1.77c0,0-1.55-3.99,0.22-4.43C136.49,67.07,144.25,67.29,144.25,67.29z"/>
</g>
</svg>
