<svg width="64" height="42" viewBox="0 0 64 42" fill="none" xmlns="http://www.w3.org/2000/svg">
<path fill-rule="evenodd" clip-rule="evenodd" d="M0 3C0 1.34315 1.34315 0 3 0H61C62.6569 0 64 1.34315 64 3V39C64 40.6569 62.6569 42 61 42H3C1.34315 42 0 40.6569 0 39V3Z" fill="#F4F6F7"/>
<path fill-rule="evenodd" clip-rule="evenodd" d="M25 32C31.0751 32 36 27.0751 36 21C36 14.9249 31.0751 10 25 10C18.9249 10 14 14.9249 14 21C14 27.0751 18.9249 32 25 32Z" fill="#D8232A"/>
<path fill-rule="evenodd" clip-rule="evenodd" d="M32 29.4857C33.9019 31.0563 36.3407 32 39 32C45.0751 32 50 27.0751 50 21C50 14.9249 45.0751 10 39 10C36.3407 10 33.9019 10.9437 32 12.5143C34.443 14.5319 36 17.5841 36 21C36 24.4159 34.443 27.4681 32 29.4857Z" fill="#ED9F2D"/>
<path fill-rule="evenodd" clip-rule="evenodd" d="M32 12.5143C29.557 14.5319 28 17.584 28 20.9999C28 24.4158 29.557 27.468 32 29.4856C34.443 27.468 36 24.4158 36 20.9999C36 17.584 34.443 14.5319 32 12.5143Z" fill="#D8232A"/>
<mask id="mask0" mask-type="alpha" maskUnits="userSpaceOnUse" x="28" y="12" width="8" height="18">
<path fill-rule="evenodd" clip-rule="evenodd" d="M32 12.5143C29.557 14.5319 28 17.584 28 20.9999C28 24.4158 29.557 27.468 32 29.4856C34.443 27.468 36 24.4158 36 20.9999C36 17.584 34.443 14.5319 32 12.5143Z" fill="white"/>
</mask>
<g mask="url(#mask0)">
<path fill-rule="evenodd" clip-rule="evenodd" d="M27 13H37V14H27V13ZM27 15H37V16H27V15ZM37 17H27V18H37V17ZM27 19H37V20H27V19ZM37 21H27V22H37V21ZM27 23H37V24H27V23ZM37 25H27V26H37V25ZM27 27H37V28H27V27ZM37 29H27V30H37V29Z" fill="#ED9F2D"/>
</g>
<path fill-rule="evenodd" clip-rule="evenodd" d="M0 3C0 1.34315 1.34315 0 3 0H61C62.6569 0 64 1.34315 64 3V39C64 40.6569 62.6569 42 61 42H3C1.34315 42 0 40.6569 0 39V3Z" fill="#E5E5E5" fill-opacity="0.01"/>
</svg>
